<svg xmlns="http://www.w3.org/2000/svg" xmlns:xlink="http://www.w3.org/1999/xlink" width="500" zoomAndPan="magnify" viewBox="0 0 375 374.999991" height="500" preserveAspectRatio="xMidYMid meet" version="1.0"><path fill="#000000" d="M 267.648438 222.109375 C 267.105469 221.570312 266.515625 221.085938 265.878906 220.664062 C 265.242188 220.238281 264.570312 219.878906 263.863281 219.589844 C 263.15625 219.296875 262.429688 219.074219 261.679688 218.925781 C 260.929688 218.777344 260.171875 218.703125 259.40625 218.703125 C 258.640625 218.703125 257.882812 218.777344 257.132812 218.925781 C 256.382812 219.074219 255.652344 219.296875 254.945312 219.589844 C 254.238281 219.878906 253.566406 220.238281 252.929688 220.664062 C 252.296875 221.085938 251.707031 221.570312 251.164062 222.109375 L 243.722656 229.355469 C 242.539062 230.515625 241.277344 231.582031 239.941406 232.5625 L 279.707031 272.328125 L 290.417969 261.554688 C 290.957031 261.011719 291.4375 260.421875 291.863281 259.785156 C 292.289062 259.152344 292.644531 258.480469 292.9375 257.773438 C 293.230469 257.066406 293.449219 256.335938 293.601562 255.585938 C 293.75 254.835938 293.824219 254.078125 293.824219 253.3125 C 293.824219 252.546875 293.75 251.789062 293.601562 251.039062 C 293.449219 250.289062 293.230469 249.5625 292.9375 248.855469 C 292.644531 248.148438 292.289062 247.476562 291.863281 246.839844 C 291.4375 246.203125 290.957031 245.613281 290.417969 245.070312 Z M 267.648438 222.109375 " fill-opacity="1" fill-rule="nonzero"/><path fill="#000000" d="M 219.609375 239.425781 C 217.351562 239.433594 215.113281 239.214844 212.898438 238.777344 C 210.683594 238.339844 208.53125 237.6875 206.445312 236.824219 C 204.359375 235.960938 202.378906 234.898438 200.503906 233.644531 C 198.628906 232.386719 196.894531 230.957031 195.300781 229.355469 L 142.644531 176.699219 C 141.585938 175.644531 140.605469 174.527344 139.695312 173.34375 C 138.785156 172.164062 137.957031 170.925781 137.210938 169.636719 C 136.460938 168.34375 135.800781 167.011719 135.226562 165.632812 C 134.652344 164.253906 134.171875 162.847656 133.78125 161.40625 C 133.394531 159.96875 133.097656 158.507812 132.902344 157.027344 C 132.703125 155.550781 132.601562 154.066406 132.59375 152.574219 C 132.589844 151.082031 132.683594 149.597656 132.871094 148.117188 C 133.0625 146.636719 133.347656 145.175781 133.726562 143.734375 L 91.269531 101.273438 C 90.113281 102.75 89.023438 104.277344 88.003906 105.851562 C 86.988281 107.425781 86.042969 109.042969 85.167969 110.707031 C 84.296875 112.367188 83.503906 114.0625 82.785156 115.796875 C 82.066406 117.53125 81.425781 119.292969 80.867188 121.082031 C 80.3125 122.871094 79.835938 124.683594 79.441406 126.519531 C 79.046875 128.351562 78.734375 130.199219 78.507812 132.0625 C 78.28125 133.925781 78.140625 135.792969 78.082031 137.667969 C 78.027344 139.542969 78.054688 141.417969 78.164062 143.289062 C 78.277344 145.164062 78.476562 147.027344 78.757812 148.878906 C 79.039062 150.734375 79.402344 152.574219 79.851562 154.394531 C 80.300781 156.214844 80.828125 158.015625 81.441406 159.789062 C 82.050781 161.5625 82.742188 163.304688 83.511719 165.015625 C 84.277344 166.726562 85.125 168.398438 86.042969 170.03125 C 86.964844 171.667969 87.957031 173.257812 89.023438 174.800781 C 90.085938 176.34375 91.21875 177.839844 92.417969 179.28125 C 93.617188 180.722656 94.882812 182.105469 96.207031 183.433594 L 188.566406 275.792969 C 189.894531 277.121094 191.28125 278.382812 192.722656 279.582031 C 194.167969 280.785156 195.664062 281.917969 197.207031 282.980469 C 198.753906 284.046875 200.347656 285.039062 201.980469 285.960938 C 203.617188 286.882812 205.292969 287.726562 207.007812 288.496094 C 208.71875 289.265625 210.464844 289.953125 212.238281 290.5625 C 214.015625 291.175781 215.8125 291.703125 217.636719 292.152344 C 219.460938 292.597656 221.300781 292.960938 223.15625 293.242188 C 225.011719 293.523438 226.878906 293.71875 228.753906 293.828125 C 230.628906 293.941406 232.503906 293.964844 234.378906 293.90625 C 236.257812 293.847656 238.125 293.703125 239.988281 293.476562 C 241.851562 293.246094 243.703125 292.933594 245.539062 292.539062 C 247.371094 292.140625 249.1875 291.664062 250.976562 291.101562 C 252.769531 290.539062 254.53125 289.898438 256.265625 289.179688 C 258 288.457031 259.699219 287.660156 261.359375 286.785156 C 263.019531 285.910156 264.636719 284.960938 266.214844 283.941406 C 267.789062 282.917969 269.3125 281.828125 270.789062 280.667969 L 228.332031 238.273438 C 225.476562 239.050781 222.566406 239.433594 219.609375 239.425781 Z M 219.609375 239.425781 " fill-opacity="1" fill-rule="nonzero"/><path fill="#000000" d="M 142.644531 128.277344 L 149.890625 121.027344 C 150.429688 120.488281 150.914062 119.898438 151.335938 119.261719 C 151.761719 118.625 152.121094 117.953125 152.410156 117.246094 C 152.703125 116.539062 152.925781 115.808594 153.074219 115.058594 C 153.222656 114.308594 153.296875 113.550781 153.296875 112.785156 C 153.296875 112.023438 153.222656 111.265625 153.074219 110.511719 C 152.925781 109.761719 152.703125 109.035156 152.410156 108.328125 C 152.121094 107.621094 151.761719 106.949219 151.335938 106.3125 C 150.914062 105.675781 150.429688 105.085938 149.890625 104.542969 L 126.929688 81.582031 C 126.390625 81.035156 125.804688 80.546875 125.171875 80.117188 C 124.535156 79.683594 123.863281 79.320312 123.15625 79.023438 C 122.449219 78.726562 121.71875 78.5 120.964844 78.351562 C 120.214844 78.199219 119.453125 78.121094 118.6875 78.121094 C 117.917969 78.121094 117.160156 78.199219 116.40625 78.351562 C 115.65625 78.5 114.925781 78.726562 114.21875 79.023438 C 113.511719 79.320312 112.839844 79.683594 112.203125 80.117188 C 111.570312 80.546875 110.984375 81.035156 110.445312 81.582031 L 99.734375 92.359375 L 139.4375 132.058594 C 140.417969 130.722656 141.484375 129.460938 142.644531 128.277344 Z M 142.644531 128.277344 " fill-opacity="1" fill-rule="nonzero"/><path fill="#000000" d="M 186 0 C 182.957031 0 179.914062 0.0742188 176.875 0.222656 C 173.832031 0.375 170.796875 0.597656 167.769531 0.894531 C 164.738281 1.195312 161.71875 1.566406 158.707031 2.011719 C 155.695312 2.460938 152.699219 2.980469 149.714844 3.574219 C 146.726562 4.167969 143.757812 4.835938 140.804688 5.574219 C 137.851562 6.3125 134.921875 7.125 132.007812 8.007812 C 129.09375 8.894531 126.203125 9.847656 123.339844 10.871094 C 120.472656 11.898438 117.632812 12.992188 114.820312 14.160156 C 112.007812 15.324219 109.226562 16.554688 106.476562 17.859375 C 103.722656 19.160156 101.003906 20.527344 98.320312 21.960938 C 95.636719 23.398438 92.988281 24.898438 90.375 26.460938 C 87.765625 28.027344 85.195312 29.65625 82.664062 31.347656 C 80.132812 33.039062 77.644531 34.789062 75.199219 36.601562 C 72.753906 38.417969 70.355469 40.289062 68.003906 42.21875 C 65.648438 44.152344 63.34375 46.140625 61.089844 48.183594 C 58.835938 50.226562 56.628906 52.324219 54.476562 54.476562 C 52.324219 56.628906 50.226562 58.835938 48.183594 61.089844 C 46.140625 63.34375 44.152344 65.648438 42.21875 68.003906 C 40.289062 70.355469 38.417969 72.753906 36.601562 75.199219 C 34.789062 77.644531 33.039062 80.132812 31.347656 82.664062 C 29.65625 85.195312 28.027344 87.765625 26.460938 90.375 C 24.898438 92.988281 23.398438 95.636719 21.960938 98.320312 C 20.527344 101.003906 19.160156 103.722656 17.859375 106.476562 C 16.554688 109.226562 15.324219 112.007812 14.160156 114.820312 C 12.992188 117.632812 11.898438 120.472656 10.871094 123.339844 C 9.847656 126.203125 8.894531 129.09375 8.007812 132.007812 C 7.125 134.921875 6.3125 137.851562 5.574219 140.804688 C 4.835938 143.757812 4.167969 146.726562 3.574219 149.714844 C 2.980469 152.699219 2.460938 155.695312 2.011719 158.707031 C 1.566406 161.71875 1.195312 164.738281 0.894531 167.769531 C 0.597656 170.796875 0.375 173.832031 0.222656 176.875 C 0.0742188 179.914062 0 182.957031 0 186 C 0 189.042969 0.0742188 192.085938 0.222656 195.125 C 0.375 198.167969 0.597656 201.203125 0.894531 204.230469 C 1.195312 207.261719 1.566406 210.28125 2.011719 213.292969 C 2.460938 216.304688 2.980469 219.300781 3.574219 222.285156 C 4.167969 225.273438 4.835938 228.242188 5.574219 231.195312 C 6.3125 234.148438 7.125 237.078125 8.007812 239.992188 C 8.894531 242.90625 9.847656 245.796875 10.871094 248.660156 C 11.898438 251.527344 12.992188 254.367188 14.160156 257.179688 C 15.324219 259.992188 16.554688 262.773438 17.859375 265.523438 C 19.160156 268.277344 20.527344 270.996094 21.960938 273.679688 C 23.398438 276.363281 24.898438 279.011719 26.460938 281.625 C 28.027344 284.234375 29.65625 286.804688 31.347656 289.335938 C 33.039062 291.867188 34.789062 294.355469 36.601562 296.800781 C 38.417969 299.246094 40.289062 301.644531 42.21875 303.996094 C 44.152344 306.351562 46.140625 308.65625 48.183594 310.910156 C 50.226562 313.164062 52.324219 315.371094 54.476562 317.523438 C 56.628906 319.675781 58.835938 321.773438 61.089844 323.816406 C 63.34375 325.859375 65.648438 327.847656 68.003906 329.78125 C 70.355469 331.710938 72.753906 333.582031 75.199219 335.398438 C 77.644531 337.210938 80.132812 338.960938 82.664062 340.652344 C 85.195312 342.34375 87.765625 343.972656 90.375 345.539062 C 92.988281 347.101562 95.636719 348.601562 98.320312 350.039062 C 101.003906 351.472656 103.722656 352.839844 106.476562 354.140625 C 109.226562 355.445312 112.007812 356.675781 114.820312 357.839844 C 117.632812 359.007812 120.472656 360.101562 123.339844 361.128906 C 126.203125 362.152344 129.09375 363.105469 132.007812 363.992188 C 134.921875 364.875 137.851562 365.6875 140.804688 366.425781 C 143.757812 367.164062 146.726562 367.832031 149.714844 368.425781 C 152.699219 369.019531 155.695312 369.539062 158.707031 369.988281 C 161.71875 370.433594 164.738281 370.804688 167.769531 371.105469 C 170.796875 371.402344 173.832031 371.625 176.875 371.777344 C 179.914062 371.925781 182.957031 372 186 372 C 189.042969 372 192.085938 371.925781 195.125 371.777344 C 198.167969 371.625 201.203125 371.402344 204.230469 371.105469 C 207.261719 370.804688 210.28125 370.433594 213.292969 369.988281 C 216.304688 369.539062 219.300781 369.019531 222.285156 368.425781 C 225.273438 367.832031 228.242188 367.164062 231.195312 366.425781 C 234.148438 365.6875 237.078125 364.875 239.992188 363.992188 C 242.90625 363.105469 245.796875 362.152344 248.660156 361.128906 C 251.527344 360.101562 254.367188 359.007812 257.179688 357.839844 C 259.992188 356.675781 262.773438 355.445312 265.523438 354.140625 C 268.277344 352.839844 270.996094 351.472656 273.679688 350.039062 C 276.363281 348.601562 279.011719 347.101562 281.625 345.539062 C 284.234375 343.972656 286.804688 342.34375 289.335938 340.652344 C 291.867188 338.960938 294.355469 337.210938 296.800781 335.398438 C 299.246094 333.582031 301.644531 331.710938 303.996094 329.78125 C 306.351562 327.847656 308.65625 325.859375 310.910156 323.816406 C 313.164062 321.773438 315.371094 319.675781 317.523438 317.523438 C 319.675781 315.371094 321.773438 313.164062 323.816406 310.910156 C 325.859375 308.65625 327.847656 306.351562 329.78125 303.996094 C 331.710938 301.644531 333.582031 299.246094 335.398438 296.800781 C 337.210938 294.355469 338.960938 291.867188 340.652344 289.335938 C 342.34375 286.804688 343.972656 284.234375 345.539062 281.625 C 347.101562 279.011719 348.601562 276.363281 350.039062 273.679688 C 351.472656 270.996094 352.839844 268.277344 354.140625 265.523438 C 355.445312 262.773438 356.675781 259.992188 357.839844 257.179688 C 359.007812 254.367188 360.101562 251.527344 361.128906 248.660156 C 362.152344 245.796875 363.105469 242.90625 363.992188 239.992188 C 364.875 237.078125 365.6875 234.148438 366.425781 231.195312 C 367.164062 228.242188 367.832031 225.273438 368.425781 222.285156 C 369.019531 219.300781 369.539062 216.304688 369.988281 213.292969 C 370.433594 210.28125 370.804688 207.261719 371.105469 204.230469 C 371.402344 201.203125 371.625 198.167969 371.777344 195.125 C 371.925781 192.085938 372 189.042969 372 186 C 372 182.957031 371.925781 179.914062 371.777344 176.875 C 371.625 173.832031 371.402344 170.796875 371.105469 167.769531 C 370.804688 164.738281 370.433594 161.71875 369.988281 158.707031 C 369.539062 155.695312 369.019531 152.699219 368.425781 149.714844 C 367.832031 146.726562 367.164062 143.757812 366.425781 140.804688 C 365.6875 137.851562 364.875 134.921875 363.992188 132.007812 C 363.105469 129.09375 362.152344 126.203125 361.128906 123.339844 C 360.101562 120.472656 359.007812 117.632812 357.839844 114.820312 C 356.675781 112.007812 355.445312 109.226562 354.140625 106.476562 C 352.839844 103.722656 351.472656 101.003906 350.039062 98.320312 C 348.601562 95.636719 347.101562 92.988281 345.539062 90.375 C 343.972656 87.765625 342.34375 85.195312 340.652344 82.664062 C 338.960938 80.132812 337.210938 77.644531 335.398438 75.199219 C 333.582031 72.753906 331.710938 70.355469 329.78125 68.003906 C 327.847656 65.648438 325.859375 63.34375 323.816406 61.089844 C 321.773438 58.835938 319.675781 56.628906 317.523438 54.476562 C 315.371094 52.324219 313.164062 50.226562 310.910156 48.183594 C 308.65625 46.140625 306.351562 44.152344 303.996094 42.21875 C 301.644531 40.289062 299.246094 38.417969 296.800781 36.601562 C 294.355469 34.789062 291.867188 33.039062 289.335938 31.347656 C 286.804688 29.65625 284.234375 28.027344 281.625 26.460938 C 279.011719 24.898438 276.363281 23.398438 273.679688 21.960938 C 270.996094 20.527344 268.277344 19.160156 265.523438 17.859375 C 262.773438 16.554688 259.992188 15.324219 257.179688 14.160156 C 254.367188 12.992188 251.527344 11.898438 248.660156 10.871094 C 245.796875 9.847656 242.90625 8.894531 239.992188 8.007812 C 237.078125 7.125 234.148438 6.3125 231.195312 5.574219 C 228.242188 4.835938 225.273438 4.167969 222.285156 3.574219 C 219.300781 2.980469 216.304688 2.460938 213.292969 2.011719 C 210.28125 1.566406 207.261719 1.195312 204.230469 0.894531 C 201.203125 0.597656 198.167969 0.375 195.125 0.222656 C 192.085938 0.0742188 189.042969 0 186 0 Z M 299.394531 270.339844 L 285.09375 284.644531 L 284.257812 285.476562 C 283.390625 286.320312 282.503906 287.140625 281.59375 287.9375 C 280.6875 288.734375 279.761719 289.511719 278.816406 290.265625 C 277.871094 291.015625 276.90625 291.746094 275.925781 292.453125 C 274.945312 293.160156 273.945312 293.839844 272.933594 294.5 C 271.917969 295.15625 270.886719 295.789062 269.84375 296.398438 C 268.796875 297.003906 267.738281 297.585938 266.667969 298.140625 C 265.59375 298.699219 264.507812 299.230469 263.40625 299.730469 C 262.308594 300.234375 261.199219 300.710938 260.074219 301.160156 C 258.953125 301.609375 257.820312 302.03125 256.679688 302.425781 C 255.535156 302.820312 254.382812 303.1875 253.222656 303.527344 C 252.0625 303.863281 250.894531 304.171875 249.71875 304.457031 C 248.542969 304.738281 247.363281 304.988281 246.175781 305.214844 C 244.988281 305.4375 243.792969 305.632812 242.597656 305.800781 C 241.398438 305.964844 240.199219 306.101562 238.996094 306.210938 C 237.789062 306.316406 236.585938 306.394531 235.375 306.445312 C 234.167969 306.496094 232.960938 306.515625 231.75 306.503906 C 230.542969 306.496094 229.335938 306.457031 228.128906 306.386719 C 226.921875 306.320312 225.71875 306.222656 224.515625 306.09375 C 223.3125 305.96875 222.113281 305.8125 220.917969 305.625 C 219.726562 305.441406 218.535156 305.226562 217.351562 304.984375 C 216.167969 304.742188 214.988281 304.46875 213.820312 304.167969 C 212.648438 303.871094 211.484375 303.539062 210.332031 303.183594 C 209.175781 302.828125 208.03125 302.441406 206.894531 302.03125 C 205.757812 301.617188 204.632812 301.175781 203.515625 300.710938 C 202.402344 300.242188 201.300781 299.75 200.207031 299.226562 C 199.117188 298.707031 198.039062 298.160156 196.976562 297.585938 C 195.910156 297.015625 194.863281 296.414062 193.828125 295.792969 C 192.792969 295.167969 191.773438 294.519531 190.769531 293.84375 C 189.765625 293.171875 188.777344 292.472656 187.808594 291.75 C 186.839844 291.027344 185.886719 290.285156 184.953125 289.515625 C 184.019531 288.75 183.105469 287.957031 182.210938 287.144531 C 181.316406 286.332031 180.441406 285.5 179.585938 284.644531 L 87.355469 192.414062 C 86.507812 191.5625 85.679688 190.691406 84.875 189.800781 C 84.070312 188.910156 83.285156 188 82.523438 187.070312 C 81.761719 186.140625 81.019531 185.195312 80.304688 184.230469 C 79.589844 183.265625 78.898438 182.28125 78.226562 181.285156 C 77.558594 180.285156 76.914062 179.273438 76.296875 178.242188 C 75.675781 177.210938 75.082031 176.167969 74.511719 175.109375 C 73.941406 174.050781 73.398438 172.980469 72.882812 171.894531 C 72.363281 170.8125 71.875 169.714844 71.410156 168.605469 C 70.945312 167.5 70.507812 166.378906 70.097656 165.25 C 69.6875 164.121094 69.304688 162.980469 68.949219 161.835938 C 68.59375 160.6875 68.269531 159.53125 67.96875 158.367188 C 67.667969 157.203125 67.398438 156.03125 67.15625 154.855469 C 66.914062 153.679688 66.699219 152.496094 66.515625 151.308594 C 66.328125 150.121094 66.171875 148.929688 66.042969 147.734375 C 65.917969 146.542969 65.816406 145.34375 65.746094 144.144531 C 65.675781 142.945312 65.636719 141.746094 65.625 140.542969 C 65.613281 139.339844 65.628906 138.140625 65.675781 136.9375 C 65.722656 135.738281 65.796875 134.539062 65.902344 133.34375 C 66.007812 132.144531 66.140625 130.953125 66.300781 129.761719 C 66.464844 128.570312 66.652344 127.382812 66.875 126.203125 C 67.09375 125.019531 67.339844 123.847656 67.617188 122.675781 C 67.894531 121.507812 68.199219 120.34375 68.53125 119.191406 C 68.863281 118.035156 69.222656 116.890625 69.609375 115.753906 C 70 114.613281 70.414062 113.488281 70.855469 112.371094 C 71.296875 111.253906 71.765625 110.148438 72.261719 109.050781 C 72.757812 107.957031 73.28125 106.875 73.828125 105.808594 C 74.378906 104.738281 74.953125 103.683594 75.550781 102.640625 C 76.148438 101.597656 76.773438 100.574219 77.421875 99.5625 C 78.070312 98.550781 78.746094 97.554688 79.441406 96.578125 C 80.140625 95.597656 80.859375 94.636719 81.601562 93.691406 C 82.347656 92.75 83.113281 91.824219 83.898438 90.914062 C 84.6875 90.007812 85.5 89.121094 86.328125 88.253906 L 86.972656 87.546875 L 101.273438 73.246094 C 101.839844 72.703125 102.429688 72.191406 103.046875 71.703125 C 103.664062 71.21875 104.300781 70.761719 104.957031 70.339844 C 105.617188 69.914062 106.296875 69.519531 106.992188 69.160156 C 107.6875 68.800781 108.398438 68.476562 109.128906 68.183594 C 109.855469 67.890625 110.59375 67.632812 111.347656 67.414062 C 112.097656 67.191406 112.859375 67.007812 113.628906 66.855469 C 114.398438 66.707031 115.175781 66.597656 115.957031 66.523438 C 116.734375 66.449219 117.519531 66.410156 118.300781 66.410156 C 119.085938 66.410156 119.867188 66.449219 120.648438 66.523438 C 121.429688 66.597656 122.203125 66.707031 122.972656 66.855469 C 123.746094 67.007812 124.503906 67.191406 125.257812 67.414062 C 126.007812 67.632812 126.75 67.890625 127.476562 68.183594 C 128.203125 68.476562 128.917969 68.800781 129.613281 69.160156 C 130.308594 69.519531 130.988281 69.914062 131.644531 70.339844 C 132.304688 70.761719 132.941406 71.21875 133.558594 71.703125 C 134.171875 72.191406 134.765625 72.703125 135.332031 73.246094 L 158.292969 96.207031 C 158.847656 96.765625 159.375 97.351562 159.871094 97.960938 C 160.367188 98.574219 160.835938 99.207031 161.269531 99.863281 C 161.707031 100.519531 162.109375 101.195312 162.480469 101.890625 C 162.847656 102.585938 163.183594 103.300781 163.484375 104.027344 C 163.785156 104.753906 164.046875 105.496094 164.273438 106.25 C 164.503906 107.003906 164.691406 107.769531 164.847656 108.542969 C 165 109.316406 165.113281 110.09375 165.191406 110.878906 C 165.265625 111.660156 165.304688 112.449219 165.304688 113.234375 C 165.304688 114.023438 165.265625 114.808594 165.191406 115.59375 C 165.113281 116.378906 165 117.15625 164.847656 117.929688 C 164.691406 118.703125 164.503906 119.464844 164.273438 120.21875 C 164.046875 120.972656 163.785156 121.714844 163.484375 122.445312 C 163.183594 123.171875 162.847656 123.882812 162.480469 124.578125 C 162.109375 125.277344 161.707031 125.953125 161.269531 126.609375 C 160.835938 127.265625 160.367188 127.898438 159.871094 128.507812 C 159.375 129.121094 158.847656 129.703125 158.292969 130.265625 L 151.042969 137.511719 C 149.074219 139.484375 147.535156 141.75 146.425781 144.308594 C 145.984375 145.3125 145.621094 146.34375 145.335938 147.398438 C 145.046875 148.457031 144.84375 149.53125 144.71875 150.621094 C 144.59375 151.707031 144.554688 152.800781 144.59375 153.894531 C 144.632812 154.988281 144.757812 156.074219 144.960938 157.152344 C 145.167969 158.226562 145.453125 159.28125 145.816406 160.316406 C 146.179688 161.347656 146.621094 162.347656 147.136719 163.316406 C 147.652344 164.28125 148.238281 165.203125 148.894531 166.082031 C 149.546875 166.960938 150.265625 167.785156 151.042969 168.554688 L 203.703125 221.210938 C 204.484375 221.96875 205.316406 222.660156 206.199219 223.296875 C 207.082031 223.929688 208.007812 224.496094 208.972656 224.996094 C 209.941406 225.496094 210.9375 225.921875 211.964844 226.277344 C 212.992188 226.628906 214.042969 226.90625 215.109375 227.109375 C 216.179688 227.308594 217.257812 227.433594 218.34375 227.476562 C 219.429688 227.519531 220.511719 227.488281 221.59375 227.371094 C 222.675781 227.257812 223.742188 227.066406 224.796875 226.796875 C 225.851562 226.527344 226.878906 226.183594 227.882812 225.765625 C 230.472656 224.703125 232.761719 223.1875 234.746094 221.210938 L 241.992188 213.964844 C 242.550781 213.410156 243.136719 212.882812 243.746094 212.386719 C 244.359375 211.886719 244.992188 211.421875 245.648438 210.984375 C 246.304688 210.550781 246.980469 210.148438 247.675781 209.777344 C 248.371094 209.40625 249.085938 209.074219 249.8125 208.773438 C 250.542969 208.472656 251.28125 208.210938 252.035156 207.980469 C 252.792969 207.753906 253.554688 207.5625 254.328125 207.410156 C 255.101562 207.257812 255.878906 207.144531 256.664062 207.066406 C 257.449219 206.988281 258.234375 206.949219 259.019531 206.949219 C 259.808594 206.949219 260.59375 206.988281 261.378906 207.066406 C 262.164062 207.144531 262.941406 207.257812 263.714844 207.410156 C 264.488281 207.5625 265.25 207.753906 266.003906 207.980469 C 266.757812 208.210938 267.5 208.472656 268.230469 208.773438 C 268.957031 209.074219 269.667969 209.40625 270.367188 209.777344 C 271.0625 210.148438 271.738281 210.550781 272.394531 210.984375 C 273.050781 211.421875 273.683594 211.886719 274.292969 212.386719 C 274.90625 212.882812 275.492188 213.410156 276.050781 213.964844 L 299.011719 236.925781 C 299.550781 237.476562 300.058594 238.050781 300.542969 238.648438 C 301.027344 239.246094 301.480469 239.867188 301.902344 240.507812 C 302.328125 241.152344 302.71875 241.8125 303.082031 242.492188 C 303.441406 243.167969 303.769531 243.863281 304.0625 244.574219 C 304.359375 245.285156 304.617188 246.007812 304.84375 246.746094 C 305.070312 247.480469 305.257812 248.222656 305.414062 248.976562 C 305.566406 249.730469 305.6875 250.492188 305.769531 251.253906 C 305.851562 252.019531 305.894531 252.785156 305.90625 253.554688 C 305.914062 254.324219 305.886719 255.09375 305.820312 255.859375 C 305.757812 256.625 305.65625 257.386719 305.519531 258.144531 C 305.382812 258.902344 305.210938 259.652344 305 260.390625 C 304.792969 261.132812 304.550781 261.859375 304.269531 262.578125 C 303.992188 263.292969 303.679688 263.996094 303.335938 264.683594 C 302.992188 265.371094 302.613281 266.042969 302.203125 266.691406 C 301.796875 267.34375 301.355469 267.972656 300.886719 268.582031 C 300.417969 269.195312 299.921875 269.777344 299.394531 270.339844 Z M 299.394531 270.339844 " fill-opacity="1" fill-rule="nonzero"/></svg>