<svg xmlns="http://www.w3.org/2000/svg" xmlns:xlink="http://www.w3.org/1999/xlink" width="500" zoomAndPan="magnify" viewBox="0 0 375 374.999991" height="500" preserveAspectRatio="xMidYMid meet" version="1.0"><path fill="#1a1a1a" d="M 261.707031 241.527344 C 261.707031 243.769531 259.890625 245.585938 257.648438 245.585938 L 207.1875 245.585938 C 204.949219 245.585938 203.128906 243.769531 203.128906 241.527344 L 203.128906 195.191406 C 203.128906 192.945312 201.3125 191.128906 199.070312 191.128906 L 175.945312 191.128906 C 173.707031 191.128906 171.886719 192.945312 171.886719 195.191406 L 171.886719 241.527344 C 171.886719 243.769531 170.074219 245.585938 167.828125 245.585938 L 117.367188 245.585938 C 115.128906 245.585938 113.308594 243.769531 113.308594 241.527344 L 113.308594 175.28125 C 113.308594 174.179688 113.757812 173.121094 114.550781 172.355469 L 184.691406 104.679688 C 186.261719 103.160156 188.753906 103.160156 190.328125 104.679688 L 260.464844 172.355469 C 261.261719 173.121094 261.707031 174.179688 261.707031 175.28125 Z M 187.511719 33.058594 C 102.210938 33.058594 33.058594 102.207031 33.058594 187.507812 C 33.058594 272.808594 102.210938 341.957031 187.511719 341.957031 C 272.8125 341.957031 341.960938 272.808594 341.960938 187.507812 C 341.960938 102.207031 272.8125 33.058594 187.511719 33.058594 " fill-opacity="1" fill-rule="nonzero"/><path fill="#1a1a1a" d="M 187.511719 365.757812 C 89.222656 365.757812 9.261719 285.792969 9.261719 187.507812 C 9.261719 89.21875 89.222656 9.261719 187.511719 9.261719 C 285.796875 9.261719 365.757812 89.21875 365.757812 187.507812 C 365.757812 285.792969 285.796875 365.757812 187.511719 365.757812 Z M 320.097656 54.917969 C 302.878906 37.699219 282.828125 24.179688 260.5 14.734375 C 237.378906 4.957031 212.820312 -0.00390625 187.511719 -0.00390625 C 162.199219 -0.00390625 137.640625 4.957031 114.523438 14.734375 C 92.191406 24.179688 72.136719 37.699219 54.917969 54.917969 C 37.699219 72.136719 24.179688 92.191406 14.738281 114.519531 C 4.957031 137.640625 0 162.195312 0 187.507812 C 0 212.816406 4.957031 237.375 14.738281 260.496094 C 24.179688 282.828125 37.699219 302.875 54.917969 320.097656 C 72.136719 337.316406 92.191406 350.835938 114.523438 360.28125 C 137.640625 370.058594 162.199219 375.015625 187.511719 375.015625 C 212.820312 375.015625 237.378906 370.058594 260.5 360.28125 C 282.828125 350.835938 302.878906 337.316406 320.097656 320.097656 C 337.316406 302.875 350.839844 282.828125 360.28125 260.496094 C 370.058594 237.375 375.015625 212.816406 375.015625 187.507812 C 375.015625 162.195312 370.058594 137.640625 360.28125 114.519531 C 350.839844 92.191406 337.316406 72.136719 320.097656 54.917969 " fill-opacity="1" fill-rule="nonzero"/></svg>