<svg xmlns="http://www.w3.org/2000/svg" xmlns:xlink="http://www.w3.org/1999/xlink" width="500" zoomAndPan="magnify" viewBox="0 0 375 374.999991" height="500" preserveAspectRatio="xMidYMid meet" version="1.0"><defs><clipPath id="47f8f03955"><path d="M 215 0 L 325.601562 0 L 325.601562 100 L 215 100 Z M 215 0 " clip-rule="nonzero"/></clipPath><clipPath id="e70bea2ef0"><path d="M 63.101562 40 L 237 40 L 237 99 L 63.101562 99 Z M 63.101562 40 " clip-rule="nonzero"/></clipPath></defs><path fill="#001849" d="M 312.945312 243.515625 L 316.699219 291.503906 C 316.527344 291.332031 316.191406 291.332031 316.015625 291.160156 C 263.757812 294.402344 230.628906 344.101562 220.039062 374.839844 L 226.355469 294.921875 C 239.34375 280.0625 266.664062 255.8125 312.945312 243.515625 Z M 312.945312 243.515625 " fill-opacity="1" fill-rule="evenodd"/><path fill="#001849" d="M 306.628906 163.589844 L 309.699219 203.722656 C 293.820312 208.503906 257.785156 222.335938 229.609375 253.757812 L 233.707031 202.351562 C 246.6875 190.398438 269.910156 173.839844 306.628906 163.589844 Z M 306.628906 163.589844 " fill-opacity="1" fill-rule="evenodd"/><path fill="#001849" d="M 302.527344 113.898438 L 304.410156 135.929688 L 303.554688 126.195312 C 288.1875 130.804688 260.691406 141.5625 236.78125 164.105469 L 240.878906 113.898438 Z M 302.527344 113.898438 " fill-opacity="1" fill-rule="evenodd"/><g clip-path="url(#47f8f03955)"><path fill="#001849" d="M 316.699219 55.320312 L 304.917969 55.320312 L 304.917969 83.160156 L 325.585938 83.160156 L 321.316406 99.894531 L 219.703125 99.894531 L 215.429688 83.160156 L 236.097656 83.160156 L 236.097656 55.320312 L 224.320312 55.320312 L 224.320312 49.6875 C 224.320312 46.613281 226.882812 44.050781 229.953125 44.050781 L 231.152344 44.050781 C 233.714844 28 245.667969 15.191406 261.035156 11.429688 C 261.035156 10.921875 260.863281 10.230469 260.863281 9.722656 C 260.855469 4.433594 265.300781 0.160156 270.589844 0.160156 C 275.882812 0.160156 280.152344 4.433594 280.152344 9.722656 C 280.152344 10.230469 279.980469 10.921875 279.980469 11.429688 C 295.351562 15.183594 307.300781 28 309.863281 44.050781 L 311.0625 44.050781 C 314.136719 44.050781 316.699219 46.613281 316.699219 49.6875 Z M 264.273438 83.160156 L 264.273438 55.320312 L 248.558594 55.320312 L 248.558594 83.160156 Z M 292.449219 83.160156 L 292.449219 55.320312 L 276.742188 55.320312 L 276.742188 83.160156 Z M 292.449219 83.160156 " fill-opacity="1" fill-rule="evenodd"/></g><g clip-path="url(#e70bea2ef0)"><path fill="#001849" d="M 63.101562 69.328125 L 63.101562 40.125 L 236.097656 61.984375 L 236.097656 76.496094 L 63.101562 98.355469 Z M 63.101562 69.328125 " fill-opacity="1" fill-rule="evenodd"/></g></svg>